<mxfile host="Electron" modified="2023-09-24T18:29:26.719Z" agent="Mozilla/5.0 (Windows NT 10.0; Win64; x64) AppleWebKit/537.36 (KHTML, like Gecko) draw.io/21.7.5 Chrome/114.0.5735.289 Electron/25.8.1 Safari/537.36" etag="0hiHicH2u7Y74gVb_xWJ" version="21.7.5" type="device">
  <diagram name="Page-1" id="UZ9boca2DR9Cts_YEfjd">
    <mxGraphModel dx="1036" dy="606" grid="1" gridSize="10" guides="1" tooltips="1" connect="1" arrows="1" fold="1" page="1" pageScale="1" pageWidth="850" pageHeight="1100" math="0" shadow="0">
      <root>
        <mxCell id="0" />
        <mxCell id="1" parent="0" />
        <mxCell id="PvzRKd8ZSrvfQclM-Jq_-1" value="Display" style="swimlane;fontStyle=1;align=center;verticalAlign=top;childLayout=stackLayout;horizontal=1;startSize=26;horizontalStack=0;resizeParent=1;resizeParentMax=0;resizeLast=0;collapsible=1;marginBottom=0;whiteSpace=wrap;html=1;" parent="1" vertex="1">
          <mxGeometry x="160" y="80" width="230" height="320" as="geometry" />
        </mxCell>
        <mxCell id="PvzRKd8ZSrvfQclM-Jq_-2" value="- scanner : Scanner&lt;br&gt;-cities : List&amp;lt;City&amp;gt;&lt;br&gt;- SmugglerName : String&lt;br&gt;- loseStatus : boolean&lt;br&gt;- loginChecker : boolean&lt;br&gt;+ s1 : Smuggler&lt;br&gt;" style="text;strokeColor=none;fillColor=none;align=left;verticalAlign=top;spacingLeft=4;spacingRight=4;overflow=hidden;rotatable=0;points=[[0,0.5],[1,0.5]];portConstraint=eastwest;whiteSpace=wrap;html=1;" parent="PvzRKd8ZSrvfQclM-Jq_-1" vertex="1">
          <mxGeometry y="26" width="230" height="104" as="geometry" />
        </mxCell>
        <mxCell id="PvzRKd8ZSrvfQclM-Jq_-3" value="" style="line;strokeWidth=1;fillColor=none;align=left;verticalAlign=middle;spacingTop=-1;spacingLeft=3;spacingRight=3;rotatable=0;labelPosition=right;points=[];portConstraint=eastwest;strokeColor=inherit;" parent="PvzRKd8ZSrvfQclM-Jq_-1" vertex="1">
          <mxGeometry y="130" width="230" height="8" as="geometry" />
        </mxCell>
        <mxCell id="PvzRKd8ZSrvfQclM-Jq_-4" value="+ smugglerMenu(): boolean&lt;br&gt;+citiesMenu(): void&lt;br&gt;+menu(): void&lt;br&gt;+ getCities(): List&amp;lt;City&amp;gt;&lt;br&gt;+ setCities(List&amp;lt;City&amp;gt; c): void&lt;br&gt;+getSmugglerName(): String&lt;br&gt;+setSmugglerName(String uName): void&lt;br&gt;+ getLoginChecker(): boolean&lt;br&gt;+ setLoginChecker(boolean lChecker): void&amp;nbsp;" style="text;strokeColor=none;fillColor=none;align=left;verticalAlign=top;spacingLeft=4;spacingRight=4;overflow=hidden;rotatable=0;points=[[0,0.5],[1,0.5]];portConstraint=eastwest;whiteSpace=wrap;html=1;" parent="PvzRKd8ZSrvfQclM-Jq_-1" vertex="1">
          <mxGeometry y="138" width="230" height="182" as="geometry" />
        </mxCell>
        <mxCell id="PvzRKd8ZSrvfQclM-Jq_-5" value="City" style="swimlane;fontStyle=1;align=center;verticalAlign=top;childLayout=stackLayout;horizontal=1;startSize=26;horizontalStack=0;resizeParent=1;resizeParentMax=0;resizeLast=0;collapsible=1;marginBottom=0;whiteSpace=wrap;html=1;" parent="1" vertex="1">
          <mxGeometry x="540" y="80" width="210" height="320" as="geometry" />
        </mxCell>
        <mxCell id="PvzRKd8ZSrvfQclM-Jq_-6" value="- name: String&lt;br&gt;- inventories: List&amp;lt;Item&amp;gt;&lt;br&gt;- inventoriesReferenceLi: List&amp;lt;String&amp;gt;&lt;br&gt;- scanner : Scanner" style="text;strokeColor=none;fillColor=none;align=left;verticalAlign=top;spacingLeft=4;spacingRight=4;overflow=hidden;rotatable=0;points=[[0,0.5],[1,0.5]];portConstraint=eastwest;whiteSpace=wrap;html=1;" parent="PvzRKd8ZSrvfQclM-Jq_-5" vertex="1">
          <mxGeometry y="26" width="210" height="104" as="geometry" />
        </mxCell>
        <mxCell id="PvzRKd8ZSrvfQclM-Jq_-7" value="" style="line;strokeWidth=1;fillColor=none;align=left;verticalAlign=middle;spacingTop=-1;spacingLeft=3;spacingRight=3;rotatable=0;labelPosition=right;points=[];portConstraint=eastwest;strokeColor=inherit;" parent="PvzRKd8ZSrvfQclM-Jq_-5" vertex="1">
          <mxGeometry y="130" width="210" height="8" as="geometry" />
        </mxCell>
        <mxCell id="PvzRKd8ZSrvfQclM-Jq_-8" value="&amp;lt;&amp;lt;Constructor&amp;gt;&amp;gt;&lt;br&gt;+ City(name, items)&lt;br&gt;+ sellsItem(): void&lt;br&gt;+ buyTheirWares(): void&lt;br&gt;+ cityAnsChecker(int a): void&lt;br&gt;+ cityMenu(): void&lt;br&gt;+ getCityName(): String&lt;br&gt;+ setCityName(String name): void&lt;br&gt;+ getInventories(): List&amp;lt;Item&amp;gt;&lt;br&gt;+ setInventories(List&amp;lt;Item&amp;gt; inv) : void" style="text;strokeColor=none;fillColor=none;align=left;verticalAlign=top;spacingLeft=4;spacingRight=4;overflow=hidden;rotatable=0;points=[[0,0.5],[1,0.5]];portConstraint=eastwest;whiteSpace=wrap;html=1;" parent="PvzRKd8ZSrvfQclM-Jq_-5" vertex="1">
          <mxGeometry y="138" width="210" height="182" as="geometry" />
        </mxCell>
        <mxCell id="S4_yzmsuY5rkLYvlrLjW-1" value="Smuggler" style="swimlane;fontStyle=1;align=center;verticalAlign=top;childLayout=stackLayout;horizontal=1;startSize=26;horizontalStack=0;resizeParent=1;resizeParentMax=0;resizeLast=0;collapsible=1;marginBottom=0;whiteSpace=wrap;html=1;" vertex="1" parent="1">
          <mxGeometry x="120" y="470" width="240" height="530" as="geometry" />
        </mxCell>
        <mxCell id="S4_yzmsuY5rkLYvlrLjW-2" value="- scanner : Scanner&lt;br&gt;- name: String&lt;br&gt;- SmugglerMoney : float&lt;br&gt;- currentCity : City&lt;br&gt;- nextCity: City&lt;br&gt;- tempCity: City&lt;br&gt;- caughtPercentageCounter : int&lt;br&gt;- fine : int&lt;br&gt;- citiesLi : List&amp;lt;City&amp;gt;&lt;br&gt;- gameLose : boolean&lt;br&gt;- randomValue : int&lt;br&gt;- caught : boolean&lt;br&gt;- inventories : List&amp;lt;Item&amp;gt;&lt;br&gt;" style="text;strokeColor=none;fillColor=none;align=left;verticalAlign=top;spacingLeft=4;spacingRight=4;overflow=hidden;rotatable=0;points=[[0,0.5],[1,0.5]];portConstraint=eastwest;whiteSpace=wrap;html=1;" vertex="1" parent="S4_yzmsuY5rkLYvlrLjW-1">
          <mxGeometry y="26" width="240" height="204" as="geometry" />
        </mxCell>
        <mxCell id="S4_yzmsuY5rkLYvlrLjW-3" value="" style="line;strokeWidth=1;fillColor=none;align=left;verticalAlign=middle;spacingTop=-1;spacingLeft=3;spacingRight=3;rotatable=0;labelPosition=right;points=[];portConstraint=eastwest;strokeColor=inherit;" vertex="1" parent="S4_yzmsuY5rkLYvlrLjW-1">
          <mxGeometry y="230" width="240" height="8" as="geometry" />
        </mxCell>
        <mxCell id="S4_yzmsuY5rkLYvlrLjW-4" value="&amp;lt;&amp;lt;Constructor&amp;gt;&amp;gt;&lt;br&gt;+ Smuggler()&lt;br&gt;+ Smuggler(String n, List&amp;lt;City&amp;gt; Cities)&lt;br&gt;+ randomCityAssigner() : void&lt;br&gt;+&amp;nbsp; randomNextCityAssigner() : void&lt;br&gt;+ inventoriesListDisplay(): void&lt;br&gt;+ sellTheirWares(): void&lt;br&gt;+ buyTheirWares(): void&lt;br&gt;+ SmugglerAnsChecker(int a) : void&lt;br&gt;+ SmugglerMenu() : void&lt;br&gt;+ getName(): String&lt;br&gt;+ setName(String n) : void&lt;br&gt;+ getInventories() : List&amp;lt;Item&amp;gt;&lt;br&gt;+ setInventories(List&amp;lt;Item&amp;gt; inv): void&lt;br&gt;+ itemQuantitiesChecker() : float&lt;br&gt;+ fineChecker() : void&lt;br&gt;+ getGameLose() : boolean&lt;br&gt;+ setGameLose(boolean status): void" style="text;strokeColor=none;fillColor=none;align=left;verticalAlign=top;spacingLeft=4;spacingRight=4;overflow=hidden;rotatable=0;points=[[0,0.5],[1,0.5]];portConstraint=eastwest;whiteSpace=wrap;html=1;" vertex="1" parent="S4_yzmsuY5rkLYvlrLjW-1">
          <mxGeometry y="238" width="240" height="292" as="geometry" />
        </mxCell>
      </root>
    </mxGraphModel>
  </diagram>
</mxfile>
